<svg id="Layer_1" xmlns="http://www.w3.org/2000/svg" width="1000" height="1000" viewBox="-915 -139 1000 1000"><style>.st0{fill:#5596E6;} .st1{fill:#325C80;} .st2{fill:#4178BE;} .st3{fill:#FFFFFF;} .st4{fill:#264A60;}</style><circle class="st0" cx="-415" cy="361" r="500"/><path class="st1" d="M-706.1 202.8h632.9v44.3h-632.9zM-706.1 354.7h481V399h-481zM-699.8 512.9h557v44.3h-557z"/><circle class="st2" cx="-597.3" cy="296.4" r="201.3"/><path class="st3" d="M-692.8 188.2h262.7v75.9h-262.7zM-692.8 337.6H-420v75.9h-272.8z"/><path class="st4" d="M-446.392 496.753l52.326-52.326 160.653 160.653-52.325 52.326z"/><circle class="st4" cx="-439.1" cy="449" r="51.3"/><path class="st4" d="M-608 506.6c-119.6 0-217.1-97.5-217.1-217.1S-727.7 72.4-608 72.4s217.1 97.5 217.1 217.1-97.5 217.1-217.1 217.1zm0-377.2c-88 0-160.1 71.5-160.1 160.1S-696 449.6-608 449.6s160.1-71.5 160.1-160.1c0-88-71.5-160.1-160.1-160.1z"/></svg>