<?xml version="1.0" encoding="utf-8"?>
<!-- Generator: Adobe Illustrator 18.1.1, SVG Export Plug-In . SVG Version: 6.00 Build 0)  -->
<!DOCTYPE svg PUBLIC "-//W3C//DTD SVG 1.1//EN" "http://www.w3.org/Graphics/SVG/1.1/DTD/svg11.dtd">
<svg version="1.1" id="Layer_1" xmlns="http://www.w3.org/2000/svg" xmlns:xlink="http://www.w3.org/1999/xlink" x="0px" y="0px"
	 viewBox="0 0 160 160" enable-background="new 0 0 160 160" xml:space="preserve">
<circle fill="#00B2EF" cx="80" cy="80" r="79"/>
<rect x="34" y="55" fill="#008ABF" width="100" height="7"/>
<rect x="34" y="79" fill="#008ABF" width="76" height="7"/>
<rect x="35" y="104" fill="#008ABF" width="88" height="7"/>
<circle fill="#008ABF" cx="51.2" cy="69.8" r="31.8"/>
<rect x="36.1" y="52.7" fill="#FFFFFF" width="41.5" height="12"/>
<rect x="36.1" y="76.3" fill="#FFFFFF" width="43.1" height="12"/>
<rect x="86" y="92" transform="matrix(0.7071 -0.7071 0.7071 0.7071 -50.8432 97.181)" fill="#00649D" width="11.7" height="35.9"/>
<circle fill="#00649D" cx="76.2" cy="93.9" r="8.1"/>
<path fill="#00649D" d="M49.5,103c-18.9,0-34.3-15.4-34.3-34.3c0-18.9,15.4-34.3,34.3-34.3c18.9,0,34.3,15.4,34.3,34.3
	C83.8,87.6,68.4,103,49.5,103z M49.5,43.4c-13.9,0-25.3,11.3-25.3,25.3C24.2,82.7,35.6,94,49.5,94s25.3-11.3,25.3-25.3
	C74.8,54.8,63.5,43.4,49.5,43.4z"/>
</svg>
